<svg width="14" height="25" viewBox="0 0 14 25" fill="none" xmlns="http://www.w3.org/2000/svg">
<path d="M9.76667 0C8.13116 0 6.56265 0.6497 5.40618 1.80617C4.2497 2.96265 3.6 4.53117 3.6 6.16667V9.6H0.3C0.134667 9.6 0 9.73333 0 9.9V14.4333C0 14.5987 0.133333 14.7333 0.3 14.7333H3.6V24.0333C3.6 24.1987 3.73333 24.3333 3.9 24.3333H8.43333C8.59867 24.3333 8.73333 24.2 8.73333 24.0333V14.7333H12.0627C12.2 14.7333 12.32 14.64 12.3533 14.5067L13.4867 9.97333C13.4978 9.9291 13.4987 9.8829 13.4893 9.83826C13.48 9.79361 13.4605 9.7517 13.4325 9.7157C13.4045 9.6797 13.3686 9.65057 13.3276 9.63052C13.2866 9.61047 13.2416 9.60004 13.196 9.6H8.73333V6.16667C8.73333 6.03097 8.76006 5.8966 8.81199 5.77123C8.86392 5.64586 8.94004 5.53194 9.03599 5.43599C9.13194 5.34004 9.24586 5.26392 9.37123 5.21199C9.4966 5.16006 9.63097 5.13333 9.76667 5.13333H13.2333C13.3987 5.13333 13.5333 5 13.5333 4.83333V0.3C13.5333 0.134667 13.4 0 13.2333 0H9.76667Z" fill="#FCC21B"/>
</svg>
